<?xml version="1.0" encoding="utf-8"?>
<!-- Generator: Adobe Illustrator 15.0.0, SVG Export Plug-In . SVG Version: 6.00 Build 0)  -->
<!DOCTYPE svg PUBLIC "-//W3C//DTD SVG 1.1//EN" "http://www.w3.org/Graphics/SVG/1.1/DTD/svg11.dtd">
<svg version="1.1" id="Layer_1" xmlns="http://www.w3.org/2000/svg" xmlns:xlink="http://www.w3.org/1999/xlink" x="0px" y="0px"
	 width="500px" height="500px" viewBox="56 131.5 500 500" enable-background="new 56 131.5 500 500" xml:space="preserve">
<path fill="#FF0000" d="M522.688,314.584l-12.647-4.488c-8.772-2.652-16.524-6.528-23.46-11.628
	c-6.937-5.1-12.444-10.608-16.32-16.932c-4.08-6.324-6.936-12.648-8.976-19.176c-2.04-6.528-3.061-13.056-3.061-19.38
	c0-5.304,0.612-11.22,2.04-17.544l2.856-12.24c0.815-1.836,0-3.264-2.856-4.488l-16.728-5.1c-8.977-2.244-17.34-3.264-25.092-3.264
	c-7.345,0-15.097,0.816-22.849,2.652s-15.912,4.692-24.071,8.364c-8.16,3.672-16.116,9.18-23.868,16.116
	c-7.595,6.796-14.205,14.97-19.842,24.316c9.761,5.549,19.58,12.386,30.149,17.041c6.64-10.492,15.49-18.579,26.208-24.425
	c11.22-6.324,22.848-9.18,34.68-8.976c2.244,0,3.876,0,4.896,0.204v4.896c0,19.788,5.508,38.76,16.116,56.712
	c10.812,17.952,25.5,31.416,44.063,40.188c-3.506,7.79-8.33,14.826-14.616,20.951c7.726,8.06,14.816,17.452,22.552,26.255
	c14.263-12.971,24.398-30.066,29.805-51.694l3.672-13.668c0.204-0.612,0.408-1.02,0.408-1.428
	C525.748,316.216,524.728,315.196,522.688,314.584z"/>
<path d="M470.761,357.87c-10.234-8.876-22.104-15.665-34.783-19.268c-9.534-2.708-20.291-4.415-30.222-4.415c0,0-6.526,0-6.528,0
	c-0.284,0-5.109-17.11-5.751-18.728c-2.53-6.373-5.764-12.441-9.507-18.182c-13.149-20.166-32.348-35.734-54.111-45.809
	c-15.181-7.027-31.672-9.898-48.338-9.898c-13.668,0-26.724,2.244-39.372,6.528c-19.992,6.732-37.332,17.952-51.612,33.66
	c-14.28,15.708-23.868,34.068-28.56,55.08c-22.848,5.1-41.412,16.728-55.896,35.088c-14.484,18.36-21.624,39.168-21.624,62.832
	c0,18.36,4.488,35.292,13.464,50.592c8.976,15.301,21.012,27.54,36.516,36.721c15.504,9.18,32.436,13.668,50.592,13.668h220.524
	c18.156,0,35.088-4.692,50.592-13.668c15.301-8.977,27.744-21.217,36.721-36.721c9.18-15.504,13.668-32.436,13.668-50.592
	c0-2.244,0-3.672-0.204-4.691c-1.343-6.707-1.204-13.588-2.924-20.324C498.409,390.168,486.523,371.542,470.761,357.87z
	 M452.064,482.088c-12.853,13.26-28.356,19.788-46.513,19.788H185.028c-17.748,0-33.048-6.732-46.104-19.992
	c-13.056-13.26-19.584-28.968-19.584-47.124c0-16.932,5.304-31.416,16.728-43.86c11.424-12.444,25.704-19.584,42.84-21.624
	l13.872-0.612l1.428-14.688c2.04-16.728,8.16-31.416,18.36-44.268c9.996-12.852,22.644-22.236,37.536-27.948v0.408
	c10.608-3.876,21.012-5.916,31.416-5.916c0.816,0,1.632,0,3.06,0.204c1.428,0.204,2.448,0.204,3.06,0.204
	c20.604,1.836,38.556,9.996,53.652,24.48c15.096,14.484,23.664,32.232,25.704,52.836l2.04,15.3h36.312
	c17.952,0,33.456,6.528,46.513,19.38c13.056,12.852,19.584,28.152,19.584,46.104C471.444,453.12,464.916,468.828,452.064,482.088z"
	/>
</svg>
