<?xml version="1.0" encoding="utf-8"?>
<!-- Generator: Adobe Illustrator 15.0.0, SVG Export Plug-In . SVG Version: 6.00 Build 0)  -->
<!DOCTYPE svg PUBLIC "-//W3C//DTD SVG 1.1//EN" "http://www.w3.org/Graphics/SVG/1.1/DTD/svg11.dtd">
<svg version="1.1" id="Layer_1" xmlns="http://www.w3.org/2000/svg" xmlns:xlink="http://www.w3.org/1999/xlink" x="0px" y="0px"
	 width="500px" height="500px" viewBox="56 146 500 500" enable-background="new 56 146 500 500" xml:space="preserve">
<path fill="#FF0000" d="M154.224,440.676c0-17.952,4.896-38.556,14.688-61.812c9.792-23.256,22.44-45.9,37.944-67.524
	c31.824-42.024,59.568-73.848,82.824-95.268l15.3-14.688c5.1,5.304,10.812,10.2,16.932,14.688
	c8.364,8.568,21.216,22.644,38.352,42.636c17.137,19.992,32.028,37.74,44.269,54.06c14.483,20.604,26.928,42.84,36.924,66.3
	c9.996,23.46,15.096,44.064,15.096,61.812c0,20.4-3.876,39.78-11.832,58.344c-7.956,18.564-18.563,34.681-32.027,48.145
	c-13.465,13.464-29.58,24.276-48.349,32.231c-18.768,7.956-38.556,12.036-59.364,12.036c-20.4,0-39.78-3.876-58.344-11.628
	c-18.564-7.752-34.68-18.156-48.144-31.62c-13.464-13.26-24.276-29.376-32.232-47.939
	C158.304,481.884,154.224,461.892,154.224,440.676z M200.328,380.904c0,16.932,3.468,30.396,10.608,40.596
	c7.14,9.996,17.952,15.096,32.436,15.096c14.688,0,25.5-5.1,32.844-15.096c7.14-9.996,10.812-23.46,11.016-40.596
	c-0.204-17.136-3.876-30.6-11.016-40.8c-7.14-9.996-18.156-15.096-32.844-15.096c-14.484,0-25.296,5.1-32.436,15.096
	C203.796,350.304,200.328,363.768,200.328,380.904z M232.356,380.904c0-3.06,0-5.508,0-7.14c0-1.632,0.204-3.876,0.408-6.732
	c0.204-2.856,0.408-5.1,1.02-6.528c0.612-1.428,1.02-3.264,1.836-4.896c0.816-1.632,1.836-3.06,3.06-3.672
	c1.428-0.816,2.856-1.224,4.692-1.224c2.856,0,5.1,0.816,6.732,2.448c1.632,1.632,2.856,4.284,3.468,7.752
	c0.612,3.672,1.02,6.528,1.224,9.18C255,372.744,255,376.212,255,380.7c0,4.692,0,8.16-0.204,10.608
	c-0.204,2.448-0.612,5.508-1.224,9.18c-0.612,3.468-1.836,6.12-3.468,7.752s-3.876,2.447-6.732,2.447
	c-1.836,0-3.264-0.407-4.692-1.224c-1.428-0.815-2.448-2.04-3.06-3.672c-0.816-1.632-1.428-3.468-1.836-4.896
	c-0.408-1.633-0.816-3.877-1.02-6.528c-0.204-2.856-0.408-5.1-0.408-6.528C232.356,386.412,232.356,383.964,232.356,380.904z
	 M244.392,539.004h26.928l101.796-219.096h-27.54L244.392,539.004z M332.112,478.008c0.204,17.136,4.08,30.601,11.22,40.8
	c7.14,9.996,18.156,15.097,32.64,15.097c14.688,0,25.5-5.101,32.641-15.097c7.14-9.995,10.607-23.664,10.812-40.8
	c-0.204-17.136-3.672-30.6-10.812-40.596c-7.141-9.996-17.952-15.096-32.641-15.096c-14.483,0-25.5,5.1-32.64,15.096
	C335.988,447.408,332.316,460.872,332.112,478.008z M364.14,478.008c0-4.691,0-8.16,0.204-10.607
	c0.204-2.448,0.612-5.509,1.225-9.181c0.611-3.672,1.836-6.12,3.468-7.752s3.876-2.448,6.731-2.448c1.836,0,3.469,0.408,4.896,1.225
	c1.428,0.815,2.448,2.04,3.264,3.876c0.816,1.836,1.429,3.468,2.04,4.896c0.612,1.429,0.816,3.672,1.021,6.528l0.204,6.528v6.936
	c0,3.264,0,5.712,0,7.141l-0.204,6.527l-1.021,6.528l-2.04,4.896l-3.264,3.876l-4.896,1.225c-2.855,0-5.1-0.816-6.731-2.448
	s-2.856-4.284-3.468-7.752c-0.612-3.672-1.021-6.732-1.225-9.18C364.14,486.372,364.14,482.7,364.14,478.008z"/>
</svg>
