<?xml version="1.0" encoding="utf-8"?>
<!-- Generator: Adobe Illustrator 15.0.0, SVG Export Plug-In . SVG Version: 6.00 Build 0)  -->
<!DOCTYPE svg PUBLIC "-//W3C//DTD SVG 1.1//EN" "http://www.w3.org/Graphics/SVG/1.1/DTD/svg11.dtd">
<svg version="1.1" id="Layer_1" xmlns="http://www.w3.org/2000/svg" xmlns:xlink="http://www.w3.org/1999/xlink" x="0px" y="0px"
	 width="500px" height="500px" viewBox="56 126 500 500" enable-background="new 56 126 500 500" xml:space="preserve">
<path d="M197.88,465.564v-3.061c-0.204-1.836,0-4.08,0.408-6.731c1.02-7.345,3.876-14.28,8.568-20.809
	c2.652-3.264,4.488-5.508,5.508-6.324c0.204-0.407,0.408-0.815,0.816-1.224l0.816-0.816c0.612-0.203,1.428-1.02,2.448-2.04
	c0.408-0.407,1.02-1.02,1.632-1.632c0.612-0.611,1.224-0.815,1.428-1.224c1.02-1.021,2.04-1.632,2.856-2.04l3.468-2.244
	c2.856-1.836,6.324-2.855,10.2-2.855h0.612c2.04,0,3.876,0.203,5.304,0.611c0.612,0.204,1.428,0.612,2.652,1.428v0.204
	c2.856,1.225,5.304,3.265,6.936,5.916c1.632,2.652,2.652,5.509,2.652,8.568c0,3.468-1.02,6.324-2.856,8.568
	c-1.224,1.836-2.856,3.468-4.488,4.691c-0.408,0.204-0.816,0.408-1.224,0.612c-0.408,0.204-0.816,0.408-0.816,0.408l-1.224,0.815
	c-0.816,0.612-1.428,1.225-2.04,1.632c-0.612,0.408-1.224,1.225-2.244,2.244c-0.816,1.021-1.632,1.836-2.244,2.856
	c-0.612,0.815-1.224,2.04-1.836,3.06c-0.612,1.225-1.02,2.448-1.02,3.469v3.06c0.816,3.06,1.632,5.508,2.244,7.344
	c1.428,2.856,3.672,5.712,6.936,8.977c0.204,0.407,1.836,2.04,4.896,5.1c17.544,15.912,25.908,33.048,24.684,51
	c-0.408,6.12-1.836,12.036-4.284,17.748s-5.304,10.404-8.772,14.28c-3.264,3.876-5.916,6.731-7.956,8.771
	c-2.04,1.836-3.672,3.265-5.1,4.284c-0.204,0.204-0.612,0.408-1.224,0.816c-0.612,0.408-1.224,0.815-1.428,0.815
	c-1.632,0.816-3.06,1.225-4.488,1.429c-1.836,0.204-3.06,0.407-4.08,0.407c-6.12,0-11.016-2.04-14.484-6.119
	c-2.856-3.469-4.08-7.549-3.672-12.036c0.408-4.488,2.652-8.16,6.732-10.813l0.204-0.612c0.204-0.204,0.612-0.611,1.02-0.815
	c0.408-0.408,0.816-0.816,1.428-1.225c0.612-0.407,1.224-1.02,1.632-1.632c0.612-0.611,1.224-1.428,1.632-2.04
	c0.612-0.815,1.224-1.632,1.632-2.447c0.612-0.816,1.224-1.837,1.632-2.856c0.612-1.02,1.02-2.04,1.428-3.06
	c0.408-1.021,0.612-2.04,1.02-3.265c0.204-1.224,0.408-2.448,0.408-3.468c0.408-4.08-0.612-8.16-3.06-12.24
	c-1.02-2.244-2.448-4.487-4.488-6.731c-1.428-1.633-2.448-2.652-3.06-3.265c-1.836-2.244-2.856-3.468-3.06-3.672
	c-0.408-0.204-0.816-0.612-1.428-1.224c-0.612-0.612-1.02-0.816-1.224-1.021c-3.06-2.855-5.304-5.304-6.936-7.344
	c-2.448-3.264-4.284-5.304-4.896-6.528c-3.876-5.304-6.528-10.607-7.956-15.911c-0.816-2.856-1.428-5.101-1.632-6.528
	c0-0.408-0.204-1.021-0.408-1.632C197.88,466.584,197.88,466.176,197.88,465.564z"/>
<path d="M277.032,458.832c0-1.224,0-2.04,0.204-2.856c0.408-4.487,1.836-8.771,4.08-13.056s4.488-7.956,7.14-10.812
	c2.652-2.856,5.1-5.509,7.752-7.752c2.652-2.244,4.692-3.876,6.324-5.101l2.448-1.428c3.06-1.836,6.528-2.856,10.2-2.856
	c2.244,0,4.284,0.204,6.12,0.612c0.204,0,0.408,0.204,1.021,0.408c0.611,0.408,1.02,0.612,1.224,0.815c0.204,0,0.408,0,0.612,0.204
	c0.204,0,0.611,0.408,1.428,1.021c4.08,2.448,6.528,6.12,7.752,11.016c0,0.408,0,0.816,0,1.428c0,0.408,0,0.816,0,1.021
	c0,0.612-0.204,1.428-0.408,2.448c-0.204,1.02-0.408,1.632-0.408,1.836c-1.428,4.691-4.283,7.956-8.567,10.2
	c-6.732,4.487-10.404,9.18-10.813,14.075c-0.204,1.633-0.204,3.061,0,4.488c0.408,2.448,1.632,5.101,3.469,7.956
	c2.243,3.264,3.876,5.508,4.896,6.528c3.264,3.264,5.1,5.1,5.712,5.508c2.448,2.244,5.712,5.712,9.588,10.404
	c11.017,13.26,16.116,26.928,15.097,40.8c-0.408,6.12-1.836,12.036-4.284,17.748s-5.305,10.403-8.772,14.279
	c-3.264,3.673-6.12,6.732-8.16,8.772c-2.243,2.04-3.876,3.468-5.1,4.284l-2.448,1.632c-2.244,0.816-3.468,1.224-4.284,1.428
	c-2.243,0.204-3.672,0.408-4.08,0.408h-0.611c-1.632,0-2.856-0.204-3.876-0.408c-0.408,0-1.021,0-1.632-0.204
	c-0.612-0.204-1.225-0.204-1.429-0.204s-0.407,0-0.611-0.203c-0.204-0.204-0.408-0.204-0.816-0.408
	c-0.204-0.204-0.408-0.204-0.612-0.204c-3.06-2.244-4.896-3.468-5.304-4.284c-3.264-3.672-4.488-7.752-3.876-12.24
	c0.612-4.487,2.856-7.956,6.936-10.812l0.612-0.816c0.408-0.408,1.021-1.02,1.836-1.632l2.448-2.448l2.652-3.264l2.447-3.876
	l1.837-4.488l0.815-4.896c0.204-8.16-4.488-16.729-14.076-25.908c-3.876-3.468-6.732-6.324-8.976-8.772
	C281.316,485.148,276.216,471.888,277.032,458.832z"/>
<path d="M356.592,455.772c0.408-4.488,1.836-8.772,4.08-13.057s4.488-7.956,7.141-10.812c2.651-2.856,5.1-5.508,7.752-7.752
	c2.447-2.244,4.487-3.876,6.119-5.101l2.652-1.428c0.408-0.408,1.224-0.816,2.04-1.632c2.244-0.816,4.896-1.428,7.752-1.428
	c6.937,0,12.036,2.651,15.708,7.752c1.02,1.428,1.632,2.855,2.04,4.691c0.204,0.408,0.408,1.021,0.408,1.632v2.244
	c0,6.324-3.061,11.22-9.181,14.28c-6.527,4.284-9.995,8.976-10.607,14.076c-0.816,6.936,3.876,15.096,13.872,24.479
	c17.952,15.708,26.112,32.845,25.092,51c-0.408,6.12-1.836,12.036-4.284,17.748s-5.508,10.404-8.771,14.28
	c-3.469,3.876-6.12,6.732-7.956,8.772s-3.672,3.264-5.101,4.283c-3.264,2.04-6.12,3.061-8.363,3.265
	c-0.612,0.204-1.633,0.204-3.061,0.204c-6.12,0-10.812-2.04-14.076-6.12c-3.06-3.469-4.283-7.548-3.876-12.036
	c0.408-4.488,2.652-8.16,6.528-10.813c0.612-0.204,1.836-1.224,3.672-2.855s3.672-4.284,5.916-7.752
	c2.04-3.672,3.264-7.141,3.468-10.813c0.408-8.16-4.487-16.728-14.279-25.907c-8.364-7.345-14.893-15.301-19.177-23.664
	C357.204,474.744,355.368,465.36,356.592,455.772z"/>
<g>
	<path fill="#FF0000" d="M84.456,391.104c0-4.896,1.836-8.976,5.508-12.444c3.468-3.468,7.752-5.1,12.648-5.1h42.024
		c4.896,0,8.976,1.632,12.24,5.1c3.468,3.468,5.1,7.548,5.1,12.444c0,5.1-1.632,9.384-5.1,12.852s-7.548,5.1-12.24,5.1h-42.024
		c-5.1,0-9.384-1.632-12.852-5.1C86.088,400.488,84.456,396.204,84.456,391.104z"/>
	<path fill="#FF0000" d="M144.024,247.896c0-4.692,1.632-8.976,4.896-12.648c4.08-3.264,8.364-5.1,13.464-5.1
		c4.284,0,8.364,1.632,12.036,5.1L204,265.44c3.468,3.264,5.1,7.344,5.1,12.24s-1.632,8.976-5.1,12.24
		c-3.468,3.468-7.344,5.1-12.24,5.1c-5.304,0-9.384-1.632-12.444-5.1l-30.6-29.376C145.86,257.076,144.024,252.792,144.024,247.896z
		"/>
	<path fill="#FF0000" d="M197.268,391.104c0-14.484,2.856-28.356,8.772-41.616c5.712-13.26,13.668-24.888,23.256-34.476
		c9.792-9.588,21.42-17.34,34.68-23.052c13.26-5.712,27.336-8.772,42.024-8.772c19.584,0,37.536,4.896,54.264,14.688
		c16.729,9.792,29.988,22.848,39.576,39.576c9.588,16.524,14.484,34.476,14.484,53.652c0,3.06-0.204,5.916-0.612,8.568
		c-5.712-3.468-12.24-5.1-19.788-5.1c-4.896,0-9.792,1.02-14.688,3.06c0.204-1.428,0.204-3.672,0.204-6.528
		c0-19.992-7.141-36.924-21.624-51c-14.484-14.076-31.824-21.216-52.021-21.216c-20.196,0-37.332,7.14-51.816,21.216
		s-21.42,31.008-21.42,51v3.672c-5.916,0.408-11.628,2.041-17.136,5.1c-0.204,0.204-0.816,0.612-2.04,1.428
		c-1.224,0.816-2.448,1.836-3.876,2.856c-1.428,1.02-2.856,2.244-4.692,3.876s-3.672,3.264-5.304,4.896
		C197.88,406.404,197.268,399.06,197.268,391.104z"/>
	<path fill="#FF0000" d="M288.048,231.168V188.94c0-4.896,1.836-9.18,5.304-12.648c3.468-3.468,7.752-5.1,12.444-5.1
		c4.896,0,9.18,1.632,12.648,5.1c3.468,3.468,5.1,7.752,5.1,12.648v42.228c0,4.896-1.632,8.772-5.1,12.036
		c-3.469,3.264-7.548,4.692-12.444,4.692c-4.896,0-8.976-1.632-12.444-4.692C289.884,239.94,288.048,236.064,288.048,231.168z"/>
	<path fill="#FF0000" d="M403.308,277.884c0-5.1,1.633-9.18,4.692-12.24l29.784-30.192c3.672-3.468,7.752-5.1,12.443-5.1
		c4.896,0,8.977,1.836,12.444,5.304c3.468,3.468,5.304,7.752,5.304,12.444c0,5.1-1.836,9.384-5.304,12.648l-30.191,29.376
		c-3.673,3.468-7.752,5.1-12.444,5.1s-8.772-1.632-11.832-5.1C404.94,286.86,403.308,282.576,403.308,277.884z"/>
	<path fill="#FF0000" d="M450.228,391.104c0-4.488,1.837-8.568,5.305-12.444c3.264-3.468,7.14-5.1,11.832-5.1h42.023
		c4.896,0,9.181,1.836,12.648,5.304c3.468,3.468,5.508,7.548,5.508,12.24c0,4.896-1.836,9.18-5.304,12.648
		c-3.672,3.468-7.752,5.304-12.853,5.304h-42.023c-4.896,0-9.181-1.632-12.24-5.1C451.86,400.488,450.228,396.204,450.228,391.104z"
		/>
</g>
</svg>
